<svg width="136" height="122" viewBox="0 0 136 122" fill="none" xmlns="http://www.w3.org/2000/svg">
<g clip-path="url(#clip0_1_97)">
<path d="M68 73.2218C74.6947 73.2218 80.1218 67.7499 80.1218 61C80.1218 54.2501 74.6947 48.7782 68 48.7782C61.3054 48.7782 55.8783 54.2501 55.8783 61C55.8783 67.7499 61.3054 73.2218 68 73.2218Z" fill="#61DAFB"/>
<path d="M68 86.0397C103.923 86.0397 133.043 74.8291 133.043 61C133.043 47.1709 103.923 35.9603 68 35.9603C32.0775 35.9603 2.95654 47.1709 2.95654 61C2.95654 74.8291 32.0775 86.0397 68 86.0397Z" stroke="#61DAFB" stroke-width="5"/>
<path d="M46.4925 73.5199C64.4537 104.886 88.6435 124.709 100.522 117.794C112.4 110.88 107.469 79.8467 89.5076 48.4801C71.5463 17.1136 47.3566 -2.70869 35.4783 4.20584C23.6 11.1204 28.5312 42.1533 46.4925 73.5199Z" stroke="#61DAFB" stroke-width="5"/>
<path d="M46.4925 48.4801C28.5312 79.8467 23.6 110.88 35.4783 117.794C47.3566 124.709 71.5463 104.886 89.5076 73.5199C107.469 42.1533 112.4 11.1204 100.522 4.20584C88.6435 -2.70869 64.4537 17.1136 46.4925 48.4801Z" stroke="#61DAFB" stroke-width="5"/>
</g>
<defs>
<clipPath id="clip0_1_97">
<rect width="136" height="122" fill="white"/>
</clipPath>
</defs>
</svg>
